<svg version="1.1" id="clear_night" xmlns="http://www.w3.org/2000/svg" xmlns:xlink="http://www.w3.org/1999/xlink" x="0px" y="0px"
	 width="600px" height="600px" viewBox="0 0 600 600" style="enable-background:new 0 0 600 600;" xml:space="preserve">
<style type="text/css">
	.moon{fill:#FFFFFF;stroke:#000000;stroke-width:12;stroke-miterlimit:10;}
</style>
<g>
	<path class="moon" d="M525.9,296.5c0,127.9-101.1,231.6-225.7,231.6c-124.7,0-225.7-103.7-225.7-231.6
		c0-127.9,101.1-231.6,225.7-231.6C424.9,64.9,525.9,168.6,525.9,296.5z"/>
	<path class="moon" d="M511.2,349c-9.9-0.8-16.1-25.4-13.9-55c2.2-29.6,12-52.9,21.8-52.1c9.9,0.8,16.1,25.4,13.9,55
		C530.8,326.4,521,349.8,511.2,349z"/>
	<path class="moon" d="M263,425.8c-7.3,12.5-29.8,12.4-50.4-0.1c-20.5-12.6-31.3-32.9-24-45.5c7.3-12.5,29.8-12.4,50.4,0.1
		C259.5,392.9,270.2,413.3,263,425.8z"/>
	<path class="moon" d="M438.1,207.2c-8.9,15.6-31.6,19-50.8,7.6c-19.2-11.4-27.5-33.4-18.7-49c8.9-15.6,31.6-19,50.8-7.6
		C438.6,169.6,447,191.5,438.1,207.2z"/>
	<ellipse class="moon" cx="267.2" cy="252.4" rx="16.8" ry="17.3"/>
	<path class="moon" d="M144.5,238.7c0,9.5-5.9,17.2-13.1,17.2c-7.2,0-13.1-7.7-13.1-17.2c0-9.5,5.9-17.2,13.1-17.2
		C138.7,221.5,144.5,229.2,144.5,238.7z"/>
	<path class="moon" d="M280.9,77.9c3.9,14.3-17.9,33.1-48.7,42c-30.8,8.9-59,4.6-62.9-9.7c-3.9-14.3,17.9-33.1,48.7-42
		C248.8,59.3,277,63.7,280.9,77.9z"/>
	<path class="moon" d="M476.5,378.5c16.7,42.2-6,91.5-50.7,110.2c-44.7,18.6-94.5-0.5-111.2-42.7c-16.7-42.2,6-91.5,50.7-110.2
		C410,317.2,459.8,336.3,476.5,378.5z"/>
	<circle class="moon" cx="216.9" cy="188.5" r="2.1"/>
	<circle class="moon" cx="148.2" cy="348.3" r="2.1"/>
	<circle class="moon" cx="316" cy="303.8" r="2.1"/>
	<circle class="moon" cx="380.7" cy="392.8" r="2.1"/>
</g>
</svg>
