<svg version="1.1" id="drizzle" xmlns="http://www.w3.org/2000/svg" xmlns:xlink="http://www.w3.org/1999/xlink" x="0px" y="0px" width="600px"
	 height="600px" viewBox="0 0 600 600" style="enable-background:new 0 0 600 600;" xml:space="preserve">
<style type="text/css">
	.drizzle{fill:#29ABE2;stroke:#000000;stroke-width:2;}
	.cloud{fill:#F2F2F2;stroke:#000000;stroke-width:12;stroke-miterlimit:10;}
</style>
<g>
	<path class="cloud" d="M108.4,255c0-42.4,33.6-73,75.6-74.3c17.6-63.8,76.1-110.8,145.4-110.8c83.3,0,150.9,66.3,150.9,149.6
		c34.5,4.1,61.2,37.5,61.2,73.1c0,38.4-31.1,73.5-69.5,73.5H113.4c-34.4,0-55-29.4-55-56.6C58.4,282.1,81.2,255,108.4,255z"/>
</g>
<circle class="drizzle" cx="131.5" cy="410.1" r="9"/>
<circle class="drizzle" cx="300" cy="410.1" r="9"/>
<circle class="drizzle" cx="215.5" cy="457.1" r="9"/>
<circle class="drizzle" cx="377.5" cy="457.1" r="9"/>
<circle class="drizzle" cx="466.2" cy="410.1" r="9"/>
</svg>
