<svg version="1.1" id="heavy_snow" xmlns="http://www.w3.org/2000/svg" xmlns:xlink="http://www.w3.org/1999/xlink" x="0px" y="0px" width="600px"
	 height="600px" viewBox="0 0 600 600" style="enable-background:new 0 0 600 600;" xml:space="preserve">
<style type="text/css">
	.cloud{fill:#E6E6E6;stroke:#000000;stroke-width:12;stroke-miterlimit:10;}
	.snowflake{fill:#F2F2F2;stroke:#000000;stroke-width:5;stroke-miterlimit:10;}
</style>
<g>
	<path class="cloud" d="M108.4,255c0-42.4,33.6-73,75.6-74.3c17.6-63.8,76.1-110.8,145.4-110.8c83.3,0,150.9,66.3,150.9,149.6
		c34.5,4.1,61.2,37.5,61.2,73.1c0,38.4-31.1,73.5-69.5,73.5H113.4c-34.4,0-55-29.4-55-56.6C58.4,282.1,81.2,255,108.4,255z"/>
</g>
<g>
	<g>
		<path class="snowflake" d="M187.6,409.3l-23.8,27.9l0.2,0.7l35-7v22.2l-35.2-6.2l-0.2,0.7l24,27.1L168,486.1L155.5,452l-0.4,0.2
			l-12.8,33.9l-18.9-11.4l23.5-27.5v-0.4l-34.5,6.4v-22.2l34.1,6.8l0.2-0.4l-23.3-27.7l19.6-11.2l12.3,33.7h0.4l12.5-33.7
			L187.6,409.3z"/>
		<path class="snowflake" d="M331.9,409.3l-23.8,27.9l0.2,0.7l35-7v22.2l-35.2-6.2l-0.2,0.7l24,27.1l-19.6,11.4L299.8,452l-0.4,0.2
			l-12.8,33.9l-18.9-11.4l23.5-27.5v-0.4l-34.5,6.4v-22.2l34.1,6.8l0.2-0.4l-23.3-27.7l19.6-11.2l12.3,33.7h0.4l12.5-33.7
			L331.9,409.3z"/>
		<path class="snowflake" d="M476.2,409.3l-23.8,27.9l0.2,0.7l35-7v22.2l-35.2-6.2l-0.2,0.7l24,27.1l-19.6,11.4L444.1,452l-0.4,0.2
			l-12.8,33.9L412,474.6l23.5-27.5v-0.4l-34.5,6.4v-22.2l34.1,6.8l0.2-0.4L412,409.5l19.6-11.2l12.3,33.7h0.4l12.5-33.7L476.2,409.3
			z"/>
	</g>
</g>
</svg>
