<svg version="1.1" id="heavy_snow_shower_night" xmlns="http://www.w3.org/2000/svg" xmlns:xlink="http://www.w3.org/1999/xlink" x="0px" y="0px" width="600px"
	 height="600px" viewBox="0 0 600 600" style="enable-background:new 0 0 600 600;" xml:space="preserve">
<style type="text/css">
	.cloud{fill:#E6E6E6;stroke:#000000;stroke-width:12;stroke-miterlimit:10;}
	.snowflake{fill:#F2F2F2;stroke:#000000;stroke-width:5;stroke-miterlimit:10;}
	.moon{fill:#FFFFFF;stroke:#000000;stroke-width:12;stroke-miterlimit:10;}	
</style>
<g>
	<g>
		<path class="moon" d="M312.9,174.3c0,77.2-61,139.9-136.3,139.9c-75.3,0-136.3-62.6-136.3-139.9c0-77.3,61-139.9,136.3-139.9
			C251.9,34.4,312.9,97,312.9,174.3z"/>
		<path class="moon" d="M304,206c-6-0.5-9.7-15.3-8.4-33.2c1.3-17.9,7.2-32,13.2-31.5c6,0.5,9.7,15.3,8.4,33.2
			C315.8,192.3,309.9,206.4,304,206z"/>
		<path class="moon" d="M154.1,252.3c-4.4,7.6-18,7.5-30.4-0.1c-12.4-7.6-18.9-19.9-14.5-27.4c4.4-7.6,18-7.5,30.4,0.1
			C152,232.5,158.5,244.8,154.1,252.3z"/>
		<path class="moon" d="M259.9,120.3c-5.4,9.4-19.1,11.5-30.7,4.6c-11.6-6.9-16.6-20.2-11.3-29.6c5.4-9.4,19.1-11.5,30.7-4.6
			C260.2,97.6,265.2,110.9,259.9,120.3z"/>
		<ellipse class="moon" cx="156.6" cy="147.6" rx="10.2" ry="10.4"/>
		<path class="moon" d="M82.6,139.4c0,5.7-3.5,10.4-7.9,10.4c-4.4,0-7.9-4.7-7.9-10.4c0-5.7,3.5-10.4,7.9-10.4
			C79,129,82.6,133.6,82.6,139.4z"/>
		<path class="moon" d="M164.9,42.3c2.4,8.6-10.8,20-29.4,25.4c-18.6,5.4-35.6,2.8-38-5.8c-2.4-8.6,10.8-20,29.4-25.4
			C145.5,31,162.6,33.6,164.9,42.3z"/>
		<path class="moon" d="M283,223.8c10.1,25.5-3.6,55.3-30.6,66.5c-27,11.3-57.1-0.3-67.2-25.8c-10.1-25.5,3.6-55.3,30.6-66.5
			C242.9,186.8,273,198.3,283,223.8z"/>
		<circle class="moon" cx="126.3" cy="109" r="1.3"/>
		<circle class="moon" cx="84.8" cy="205.5" r="1.3"/>
		<circle class="moon" cx="186.1" cy="178.6" r="1.3"/>
		<circle class="moon" cx="225.2" cy="232.4" r="1.3"/>
	</g>
	<path class="cloud" d="M108.4,255c0-42.4,33.6-73,75.6-74.3c17.6-63.8,76.1-110.8,145.4-110.8c83.3,0,150.9,66.3,150.9,149.6
		c34.5,4.1,61.2,37.5,61.2,73.1c0,38.4-31.1,73.5-69.5,73.5H113.4c-34.4,0-55-29.4-55-56.6C58.4,282.1,81.2,255,108.4,255z"/>
</g>
<g>
	<g>
		<path class="snowflake" d="M187.6,409.3l-23.8,27.9l0.2,0.7l35-7v22.2l-35.2-6.2l-0.2,0.7l24,27.1L168,486.1L155.5,452l-0.4,0.2
			l-12.8,33.9l-18.9-11.4l23.5-27.5v-0.4l-34.5,6.4v-22.2l34.1,6.8l0.2-0.4l-23.3-27.7l19.6-11.2l12.3,33.7h0.4l12.5-33.7
			L187.6,409.3z"/>
		<path class="snowflake" d="M331.9,409.3l-23.8,27.9l0.2,0.7l35-7v22.2l-35.2-6.2l-0.2,0.7l24,27.1l-19.6,11.4L299.8,452l-0.4,0.2
			l-12.8,33.9l-18.9-11.4l23.5-27.5v-0.4l-34.5,6.4v-22.2l34.1,6.8l0.2-0.4l-23.3-27.7l19.6-11.2l12.3,33.7h0.4l12.5-33.7
			L331.9,409.3z"/>
		<path class="snowflake" d="M476.2,409.3l-23.8,27.9l0.2,0.7l35-7v22.2l-35.2-6.2l-0.2,0.7l24,27.1l-19.6,11.4L444.1,452l-0.4,0.2
			l-12.8,33.9L412,474.6l23.5-27.5v-0.4l-34.5,6.4v-22.2l34.1,6.8l0.2-0.4L412,409.5l19.6-11.2l12.3,33.7h0.4l12.5-33.7L476.2,409.3
			z"/>
	</g>
</g>
</svg>
