<svg version="1.1" id="heavy_rain_shower_night" xmlns="http://www.w3.org/2000/svg" xmlns:xlink="http://www.w3.org/1999/xlink" x="0px" y="0px" width="600px"
	 height="600px" viewBox="0 0 600 600" style="enable-background:new 0 0 600 600;" xml:space="preserve">
<style type="text/css">
	.cloud{fill:#666666;stroke:#000000;stroke-width:12;stroke-miterlimit:10;}
	.raindrop{fill:#29ABE2;stroke:#000000;stroke-width:8;stroke-miterlimit:10;}
	.sun{fill:#FFFFFF;stroke:#000000;stroke-width:12;stroke-miterlimit:10;}
</style>
<g>
	<g>
		<path class="sun" d="M312.9,174.3c0,77.2-61,139.9-136.3,139.9c-75.3,0-136.3-62.6-136.3-139.9c0-77.3,61-139.9,136.3-139.9
			C251.9,34.4,312.9,97,312.9,174.3z"/>
		<path class="sun" d="M304,206c-6-0.5-9.7-15.3-8.4-33.2c1.3-17.9,7.2-32,13.2-31.5c6,0.5,9.7,15.3,8.4,33.2
			C315.8,192.3,309.9,206.4,304,206z"/>
		<path class="sun" d="M154.1,252.3c-4.4,7.6-18,7.5-30.4-0.1c-12.4-7.6-18.9-19.9-14.5-27.4c4.4-7.6,18-7.5,30.4,0.1
			C152,232.5,158.5,244.8,154.1,252.3z"/>
		<path class="sun" d="M259.9,120.3c-5.4,9.4-19.1,11.5-30.7,4.6c-11.6-6.9-16.6-20.2-11.3-29.6c5.4-9.4,19.1-11.5,30.7-4.6
			C260.2,97.6,265.2,110.9,259.9,120.3z"/>
		<ellipse class="sun" cx="156.6" cy="147.6" rx="10.2" ry="10.4"/>
		<path class="sun" d="M82.6,139.4c0,5.7-3.5,10.4-7.9,10.4c-4.4,0-7.9-4.7-7.9-10.4c0-5.7,3.5-10.4,7.9-10.4
			C79,129,82.6,133.6,82.6,139.4z"/>
		<path class="sun" d="M164.9,42.3c2.4,8.6-10.8,20-29.4,25.4c-18.6,5.4-35.6,2.8-38-5.8c-2.4-8.6,10.8-20,29.4-25.4
			C145.5,31,162.6,33.6,164.9,42.3z"/>
		<path class="sun" d="M283,223.8c10.1,25.5-3.6,55.3-30.6,66.5c-27,11.3-57.1-0.3-67.2-25.8c-10.1-25.5,3.6-55.3,30.6-66.5
			C242.9,186.8,273,198.3,283,223.8z"/>
		<circle class="sun" cx="126.3" cy="109" r="1.3"/>
		<circle class="sun" cx="84.8" cy="205.5" r="1.3"/>
		<circle class="sun" cx="186.1" cy="178.6" r="1.3"/>
		<circle class="sun" cx="225.2" cy="232.4" r="1.3"/>
	</g>
	<path class="cloud" d="M108.4,255c0-42.4,33.6-73,75.6-74.3c17.6-63.8,76.1-110.8,145.4-110.8c83.3,0,150.9,66.3,150.9,149.6
		c34.5,4.1,61.2,37.5,61.2,73.1c0,38.4-31.1,73.5-69.5,73.5H113.4c-34.4,0-55-29.4-55-56.6C58.4,282.1,81.2,255,108.4,255z"/>
</g>
<g>
	<path class="raindrop" d="M329.5,457.8c0,16.2-13.1,29.2-29.2,29.2S271,473.9,271,457.8s13.1-66.8,29.2-66.8S329.5,441.6,329.5,457.8z"/>
	<path class="raindrop" d="M179.5,457.8c0,16.2-13.1,29.2-29.2,29.2S121,473.9,121,457.8s13.1-66.8,29.2-66.8S179.5,441.6,179.5,457.8z"/>
	<path class="raindrop" d="M479.5,457.8c0,16.2-13.1,29.2-29.2,29.2S421,473.9,421,457.8s13.1-66.8,29.2-66.8S479.5,441.6,479.5,457.8z"/>
</g>
</svg>
