<svg version="1.1" id="light_snow_shower_day" xmlns="http://www.w3.org/2000/svg" xmlns:xlink="http://www.w3.org/1999/xlink" x="0px" y="0px" width="600px"
	 height="600px" viewBox="0 0 600 600" style="enable-background:new 0 0 600 600;" xml:space="preserve">
<style type="text/css">
	.cloud{fill:#E6E6E6;stroke:#000000;stroke-width:12;stroke-miterlimit:10;}
	.sun{fill:orange;stroke:#000000;stroke-width:12;stroke-miterlimit:10;}
	.snowflake{fill:#F2F2F2;stroke:#000000;stroke-width:5;stroke-miterlimit:10;}
</style>
<g>
	<g>
		<circle class="sun" cx="165.3" cy="159.7" r="90.3"/>
		<g>
			<line class="sun" x1="245.5" y1="79.1" x2="277.4" y2="47.1"/>
			<line class="sun" x1="86.4" y1="239" x2="54.5" y2="271"/>
			<line class="sun" x1="86" y1="79.4" x2="54" y2="47.6"/>
			<line class="sun" x1="245.9" y1="238.6" x2="277.9" y2="270.5"/>
		</g>
		<line class="sun" x1="165" y1="47" x2="165" y2="2"/>
		<line class="sun" x1="165" y1="273" x2="165" y2="318"/>
		<line class="sun" x1="50" y1="160" x2="5" y2="160"/>
		<line class="sun" x1="276" y1="160" x2="321" y2="160"/>
	</g>
	<path class="cloud" d="M108.4,255c0-42.4,33.6-73,75.6-74.3c17.6-63.8,76.1-110.8,145.4-110.8c83.3,0,150.9,66.3,150.9,149.6
		c34.5,4.1,61.2,37.5,61.2,73.1c0,38.4-31.1,73.5-69.5,73.5H113.4c-34.4,0-55-29.4-55-56.6C58.4,282.1,81.2,255,108.4,255z"/>
</g>
<g>
	<g>
		<path class="snowflake" d="M331.9,409.3l-23.8,27.9l0.2,0.7l35-7v22.2l-35.2-6.2l-0.2,0.7l24,27.1l-19.6,11.4L299.8,452l-0.4,0.2
			l-12.8,33.9l-18.9-11.4l23.5-27.5v-0.4l-34.5,6.4v-22.2l34.1,6.8l0.2-0.4l-23.3-27.7l19.6-11.2l12.3,33.7h0.4l12.5-33.7
			L331.9,409.3z"/>
	</g>
</g>
</svg>
